<?xml version="1.0" encoding="utf-8"?><svg version="1.1" id="Layer_1" xmlns="http://www.w3.org/2000/svg" xmlns:xlink="http://www.w3.org/1999/xlink" x="0px" y="0px" viewBox="0 0 113.01 122.88" style="enable-background:new 0 0 113.01 122.88" xml:space="preserve"><g><path d="M44.13,102.06c-1.14,0.03-2.14-0.81-2.3-1.96c-0.17-1.2,0.64-2.31,1.82-2.54c-1.3-7.37-4.85-11.43-8.6-15.72 c-2.92-3.34-5.95-6.81-8.34-11.92c-2.35-5.03-3.64-10.23-3.6-15.63c0.05-5.4,1.42-10.96,4.4-16.71c0.02-0.04,0.04-0.07,0.06-0.11 l0,0c3.91-6.62,9.38-11.04,15.47-13.52c5.11-2.09,10.66-2.8,16.1-2.3c5.42,0.5,10.73,2.2,15.37,4.94 c5.91,3.49,10.75,8.67,13.42,15.21c1.44,3.54,2.42,7.49,2.54,11.82c0.12,4.31-0.62,8.96-2.61,13.88 c-2.66,6.59-6.18,10.68-9.47,14.51c-3.03,3.53-5.85,6.81-7.42,11.84c0.89,0.21,1.59,0.94,1.73,1.9c0.17,1.24-0.7,2.39-1.94,2.56 l-0.77,0.11c-0.14,1.09-0.23,2.26-0.27,3.51l0.25-0.04c1.24-0.17,2.39,0.7,2.56,1.94c0.17,1.24-0.7,2.39-1.94,2.56l-0.78,0.11 c0.01,0.15,0.02,0.3,0.03,0.45l0,0c0.07,0.88,0.08,1.73,0.03,2.54l0.13-0.02c1.25-0.15,2.38,0.74,2.54,1.98 c0.15,1.25-0.74,2.38-1.98,2.54l-1.68,0.21c-1.2,3.11-3.34,5.48-5.87,6.94c-1.74,1.01-3.67,1.59-5.61,1.71 c-1.97,0.12-3.96-0.25-5.78-1.13c-2.08-1.02-3.94-2.71-5.29-5.14c-0.65-0.33-1.13-0.97-1.23-1.75c-0.04-0.31-0.01-0.61,0.07-0.89 c-0.39-1.16-0.68-2.43-0.87-3.83l-0.07,0.01c-1.24,0.17-2.39-0.7-2.56-1.94c-0.17-1.24,0.7-2.39,1.94-2.56l0.54-0.08 C44.19,104.32,44.18,103.16,44.13,102.06L44.13,102.06z M59.42,65.9c0-0.93-0.22-1.65-0.69-2.18c-0.46-0.53-1.25-1.01-2.4-1.49 c-1.13-0.46-2.2-0.94-3.16-1.41c-0.96-0.48-1.8-1.03-2.5-1.66c-0.7-0.63-1.23-1.35-1.61-2.18c-0.38-0.82-0.55-1.82-0.55-3 c0-1.97,0.67-3.59,1.99-4.85c1.32-1.27,3.09-2.02,5.3-2.23v-2.64h2.78v2.71c2.13,0.31,3.81,1.18,5.03,2.62 c1.22,1.44,1.84,3.26,1.84,5.47h-5.92c0-1.22-0.24-2.14-0.7-2.8c-0.46-0.65-1.13-0.98-1.99-0.98c-0.77,0-1.37,0.24-1.78,0.72 c-0.43,0.48-0.63,1.15-0.63,1.99c0,0.86,0.24,1.54,0.74,2.06c0.5,0.51,1.27,0.99,2.35,1.46c1.08,0.46,2.11,0.94,3.07,1.42 c0.96,0.5,1.78,1.06,2.49,1.68c0.7,0.63,1.25,1.37,1.65,2.21c0.39,0.84,0.6,1.84,0.6,3.02c0,1.99-0.63,3.62-1.9,4.87 c-1.27,1.25-2.99,1.99-5.16,2.2v2.47h-2.78V72.9c-2.54-0.27-4.49-1.13-5.85-2.61c-1.36-1.48-2.04-3.41-2.04-5.83h5.9 c0,1.34,0.29,2.33,0.87,3.04c0.58,0.69,1.42,1.05,2.5,1.05c0.79,0,1.41-0.24,1.87-0.7c0.45-0.46,0.69-1.12,0.69-1.94H59.42 L59.42,65.9z M2.18,58.86C1.01,58.89,0.04,57.98,0,56.81c-0.04-1.17,0.88-2.14,2.05-2.18l8.7-0.3c1.17-0.04,2.14,0.88,2.18,2.05 c0.04,1.17-0.88,2.14-2.05,2.18L2.18,58.86L2.18,58.86z M110.68,50.25c1.16-0.12,2.2,0.73,2.32,1.89c0.12,1.16-0.73,2.2-1.89,2.32 l-8.66,0.91c-1.16,0.12-2.2-0.73-2.32-1.89c-0.12-1.16,0.73-2.2,1.89-2.32L110.68,50.25L110.68,50.25z M94.91,14.78 c0.65-0.97,1.96-1.23,2.93-0.58c0.97,0.65,1.23,1.96,0.58,2.93l-4.84,7.24c-0.65,0.97-1.96,1.23-2.93,0.58 c-0.97-0.65-1.23-1.96-0.58-2.93L94.91,14.78L94.91,14.78z M57.63,2.06c0.03-1.17,1-2.09,2.16-2.06s2.09,1,2.06,2.16l-0.22,8.7 c-0.03,1.17-1,2.09-2.16,2.06c-1.17-0.03-2.09-1-2.06-2.16L57.63,2.06L57.63,2.06z M13.88,15.53c-0.86-0.8-0.9-2.14-0.11-2.99 c0.8-0.86,2.14-0.9,2.99-0.11l6.37,5.94c0.86,0.8,0.9,2.14,0.11,2.99c-0.8,0.86-2.14,0.9-2.99,0.11L13.88,15.53L13.88,15.53z M47.88,96.95l18.49-2.63c1.59-6.7,5.05-10.73,8.8-15.08c3.08-3.58,6.36-7.4,8.76-13.34c1.76-4.35,2.41-8.43,2.31-12.19 c-0.1-3.75-0.96-7.21-2.24-10.34c-2.3-5.63-6.51-10.11-11.65-13.15c-4.11-2.43-8.8-3.94-13.59-4.37 c-4.77-0.44-9.64,0.19-14.13,2.02c-5.26,2.15-9.99,5.97-13.39,11.72c-2.64,5.12-3.86,10.02-3.9,14.73 c-0.04,4.74,1.11,9.33,3.2,13.8c2.13,4.56,4.97,7.8,7.69,10.92C42.47,83.9,46.48,88.49,47.88,96.95L47.88,96.95z M65.62,99.02 l-17.27,2.45c0.05,1.1,0.07,2.25,0.05,3.47l17.05-2.42C65.47,101.29,65.52,100.12,65.62,99.02L65.62,99.02z M48.49,109.52 c0.12,0.92,0.3,1.76,0.53,2.54l16.55-2.04c0.11-0.86,0.13-1.77,0.05-2.74l0,0l0-0.02l-0.01-0.17L48.49,109.52L48.49,109.52z M51.37,116.36c0.64,0.67,1.35,1.19,2.1,1.55c1.15,0.56,2.42,0.79,3.67,0.72c1.28-0.08,2.57-0.47,3.74-1.15 c1.1-0.64,2.09-1.53,2.88-2.65L51.37,116.36L51.37,116.36z"/></g></svg>